<svg version="1.0" xmlns="http://www.w3.org/2000/svg"
 width="100px" height="100px" viewBox="0 0 2606.000000 2004.000000"
 preserveAspectRatio="xMidYMid meet">

<g transform="translate(0.000000,2004.000000) scale(0.100000,-0.100000)"
fill="#2150a5" stroke="none">
<path d="M13445 15999 c-1180 -35 -2403 -370 -3481 -952 -770 -415 -1417 -899
-2059 -1542 -466 -465 -827 -906 -1195 -1460 -896 -1344 -1470 -2916 -1675
-4585 -66 -538 -90 -1019 -79 -1617 l7 -403 899 0 898 0 -2 218 -3 217 -614 3
-614 2 6 383 c19 1119 189 2116 536 3142 151 445 293 789 491 1190 240 485
485 896 788 1319 131 183 378 503 422 546 3 3 30 34 60 70 204 242 615 661
841 856 146 127 303 258 373 312 542 415 1059 732 1598 976 813 370 1608 579
2498 658 196 17 935 17 1140 0 1134 -97 2192 -436 3179 -1019 834 -493 1596
-1161 2232 -1958 479 -601 890 -1280 1209 -2000 491 -1110 778 -2333 839
-3580 10 -217 14 -745 5 -830 l-7 -65 -626 -2 -626 -3 -3 -217 -2 -218 900 0
900 0 0 23 c0 13 4 27 9 33 27 27 47 852 31 1226 -50 1131 -257 2206 -623
3228 -878 2454 -2626 4408 -4807 5375 -1108 491 -2229 710 -3445 674z"/>
<path d="M8730 10015 l0 -2415 581 0 581 0 -5 693 c-3 444 -10 798 -20 987
-16 288 -32 599 -62 1205 -8 165 -18 356 -22 425 -3 69 -3 122 1 119 6 -6 67
-183 326 -944 48 -143 165 -487 260 -765 94 -278 212 -624 262 -770 49 -146
128 -377 175 -515 47 -137 96 -283 109 -324 41 -125 -10 -111 423 -111 l378 0
33 93 c18 50 106 310 197 577 90 267 246 724 345 1015 671 1974 592 1750 596
1696 3 -40 -11 -338 -53 -1171 -50 -978 -55 -1119 -55 -1661 l0 -549 580 0
580 0 0 2415 0 2415 -762 -2 -762 -3 -82 -255 c-45 -140 -193 -601 -329 -1025
-135 -423 -253 -788 -260 -810 -8 -22 -100 -310 -206 -640 -105 -330 -195
-604 -199 -609 -5 -4 -42 97 -83 225 -242 752 -371 1154 -592 1844 -136 424
-283 884 -328 1023 l-81 252 -763 0 -763 0 0 -2415z"/>
<path d="M14680 10821 c0 -1657 2 -1768 41 -1969 124 -640 571 -1085 1254
-1247 212 -51 309 -60 625 -60 259 1 311 3 425 23 422 73 734 217 979 452 265
255 423 594 466 1002 6 57 10 741 10 1751 l0 1657 -580 0 -580 0 -3 -1697 -3
-1698 -22 -90 c-12 -49 -43 -132 -68 -183 -113 -228 -313 -332 -637 -332 -239
0 -406 58 -533 184 -99 99 -157 225 -189 410 -13 77 -15 306 -15 1747 l0 1659
-585 0 -585 0 0 -1609z"/>
<path d="M10193 6980 c-108 -23 -186 -95 -222 -207 -20 -63 -23 -87 -20 -205
4 -127 6 -137 37 -200 60 -123 149 -173 302 -173 100 1 146 14 218 62 l52 35
0 149 0 149 -145 0 -145 0 0 -45 0 -45 80 0 80 0 0 -78 c0 -92 -8 -104 -83
-123 -119 -30 -219 25 -253 138 -17 56 -19 251 -3 308 28 103 94 144 221 137
37 -3 92 -53 112 -102 l16 -40 61 0 61 0 -7 33 c-10 42 -42 106 -69 135 -52
57 -195 92 -293 72z"/>
<path d="M11250 6981 c-102 -21 -184 -92 -221 -190 -27 -72 -37 -243 -19 -333
30 -155 129 -250 274 -265 67 -7 169 19 220 56 45 32 91 107 101 164 l7 37
-61 0 c-50 0 -63 -3 -67 -17 -17 -55 -47 -104 -71 -116 -102 -53 -203 -22
-256 77 -20 37 -22 55 -22 196 0 152 1 156 28 203 42 71 76 89 164 85 60 -3
76 -7 98 -28 32 -30 55 -71 55 -100 0 -18 6 -20 65 -20 73 0 74 1 49 73 -21
62 -83 130 -141 155 -54 23 -151 34 -203 23z"/>
<path d="M8287 6973 c-4 -3 -7 -179 -7 -390 l0 -383 67 0 66 0 -6 303 c-4 171
-3 293 2 282 5 -11 46 -117 91 -235 45 -118 93 -246 108 -283 l26 -68 45 3 45
3 112 293 c62 162 115 296 117 298 2 3 2 -131 -1 -296 l-5 -300 61 0 62 0 2
368 c2 202 2 377 0 390 -3 22 -7 23 -85 20 l-82 -3 -107 -285 c-58 -157 -110
-291 -115 -298 -5 -9 -37 63 -92 210 -46 123 -97 258 -113 301 l-29 77 -78 0
c-43 0 -81 -3 -84 -7z"/>
<path d="M9332 6603 c-78 -208 -142 -384 -142 -391 0 -10 16 -12 62 -10 l62 3
18 50 c10 28 25 69 34 93 l16 43 150 -3 150 -3 33 -90 32 -90 68 -3 c52 -2 66
0 63 10 -154 412 -282 746 -290 756 -6 7 -33 12 -62 12 l-52 0 -142 -377z
m258 57 c29 -83 50 -157 46 -165 -7 -20 -216 -22 -216 -2 0 20 103 317 111
317 3 0 30 -68 59 -150z"/>
<path d="M10725 6967 c-3 -6 -4 -181 -3 -387 l3 -375 63 -3 62 -3 0 391 0 390
-60 0 c-39 0 -62 -4 -65 -13z"/>
<path d="M11822 6603 c-78 -208 -142 -384 -142 -391 0 -10 16 -12 62 -10 l62
3 18 50 c10 28 25 69 34 93 l16 43 151 -3 151 -3 32 -90 32 -90 66 -3 c36 -2
66 -1 66 2 0 3 -94 253 -266 709 l-26 67 -57 0 -57 0 -142 -377z m208 203 c0
-2 24 -74 54 -159 44 -128 51 -157 39 -161 -26 -11 -202 -6 -208 5 -8 12 96
319 108 319 4 0 7 -2 7 -4z"/>
<path d="M12470 6590 l0 -390 240 0 240 0 0 50 0 50 -177 2 -178 3 -3 338 -2
337 -60 0 -60 0 0 -390z"/>
<path d="M13324 6967 c-3 -8 -4 -144 -2 -303 3 -261 5 -293 22 -328 48 -95
135 -141 272 -141 70 0 89 4 140 30 35 19 71 47 90 72 47 62 56 132 52 428
l-3 250 -62 3 -62 3 -3 -293 c-3 -285 -4 -294 -26 -330 -56 -90 -222 -87 -275
5 -8 16 -13 108 -17 317 l-5 295 -58 3 c-42 2 -59 -1 -63 -11z"/>
<path d="M14050 6590 l0 -390 61 0 61 0 -3 299 c-3 180 0 293 5 284 5 -9 57
-143 116 -297 l107 -281 45 -3 c41 -3 46 -1 56 25 7 15 57 147 112 293 56 145
103 267 106 270 3 3 3 -129 -1 -292 l-8 -298 67 0 66 0 0 390 0 390 -84 0 -83
0 -108 -287 c-59 -159 -111 -295 -115 -303 -7 -12 -10 -10 -18 10 -123 331
-205 548 -213 562 -8 15 -23 18 -89 18 l-80 0 0 -390z"/>
<path d="M15010 6590 l0 -392 183 5 c208 5 243 13 303 72 34 32 44 51 53 97
20 94 -9 169 -81 212 l-39 23 33 21 c50 31 73 76 73 147 0 70 -23 118 -74 152
-55 37 -97 45 -278 50 l-173 6 0 -393z m349 265 c57 -29 66 -124 16 -174 -24
-24 -33 -26 -135 -29 l-110 -4 0 111 0 111 100 0 c69 0 110 -5 129 -15z m12
-316 c30 -16 59 -70 59 -110 0 -51 -37 -101 -85 -117 -23 -7 -74 -12 -124 -10
l-86 3 -3 122 c-3 119 -2 122 20 127 36 8 197 -3 219 -15z"/>
<path d="M15700 6591 l0 -391 65 0 65 0 0 150 0 150 78 0 78 0 78 -150 79
-150 63 0 c41 0 64 4 64 11 0 6 -36 78 -80 160 -44 82 -80 152 -80 157 0 4 19
18 41 32 23 14 53 45 67 70 53 89 29 235 -47 289 -62 44 -108 53 -293 59
l-178 4 0 -391z m361 262 c78 -46 78 -177 1 -225 -30 -18 -55 -23 -134 -26
l-98 -4 0 136 0 136 101 0 c77 0 108 -4 130 -17z"/>
<path d="M16390 6590 l0 -390 250 0 250 0 0 50 0 50 -185 0 -185 0 0 125 0
125 160 0 160 0 0 50 0 50 -160 0 -160 0 0 110 0 110 183 2 182 3 0 50 0 50
-247 3 -248 2 0 -390z"/>
<path d="M17010 6590 l0 -390 240 0 240 0 0 50 0 50 -175 0 -175 0 -2 338 -3
337 -62 3 -63 3 0 -391z"/>
<path d="M17600 6590 l0 -390 240 0 240 0 0 50 0 50 -175 0 -175 0 -2 338 -3
337 -62 3 -63 3 0 -391z"/>
<path d="M18420 6960 c-6 -12 -26 -62 -45 -113 -19 -51 -79 -211 -134 -357
-56 -146 -101 -271 -101 -277 0 -9 19 -13 63 -13 l62 0 29 85 c16 47 35 90 41
95 8 7 69 9 156 8 l143 -3 32 -90 31 -90 67 -3 c36 -2 66 -1 66 2 0 13 -283
752 -292 764 -6 6 -32 12 -59 12 -38 0 -51 -4 -59 -20z m123 -307 c38 -111 51
-160 43 -165 -17 -12 -204 -9 -211 2 -7 11 96 320 106 320 4 0 31 -71 62 -157z"/>
</g>
</svg>
